<svg width="201" height="51" viewBox="0 0 201 51" fill="none" xmlns="http://www.w3.org/2000/svg">
<g filter="url(#filter0_d_119_9)">
<rect x="4.875" y="2.875" width="40.25" height="40.25" rx="9" fill="white"/>
<path fill-rule="evenodd" clip-rule="evenodd" d="M16.1953 8.625V21.125V23V35.5H24.9453L17.3366 23H24.9453L33.6953 37.375V24.875V23V10.5H24.9453L32.554 23H24.9453L16.1953 8.625Z" fill="url(#paint0_radial_119_9)"/>
<rect x="5.375" y="3.375" width="39.25" height="39.25" rx="8.5" stroke="#F4F4F4"/>
</g>
<path d="M58.0227 35H72.9205V30.9432H62.9432V11.7273H58.0227V35ZM76.0881 35H80.929V17.5455H76.0881V35ZM78.5199 15.2955C79.9631 15.2955 81.1449 14.1932 81.1449 12.8409C81.1449 11.5 79.9631 10.3977 78.5199 10.3977C77.0881 10.3977 75.9062 11.5 75.9062 12.8409C75.9062 14.1932 77.0881 15.2955 78.5199 15.2955ZM89.6477 24.9091C89.6591 22.6591 91 21.3409 92.9545 21.3409C94.8977 21.3409 96.0682 22.6136 96.0568 24.75V35H100.898V23.8864C100.898 19.8182 98.5114 17.3182 94.875 17.3182C92.2841 17.3182 90.4091 18.5909 89.625 20.625H89.4205V17.5455H84.8068V35H89.6477V24.9091ZM104.713 35H109.554V29.4545L110.861 27.9659L115.622 35H121.293L114.486 25.1023L120.963 17.5455H115.406L109.815 24.1705H109.554V11.7273H104.713V35ZM123.429 35H128.349V26.75H131.94L136.349 35H141.781L136.838 25.9545C139.486 24.8182 140.952 22.5114 140.952 19.3295C140.952 14.7045 137.895 11.7273 132.611 11.7273H123.429V35ZM128.349 22.7955V15.75H131.668C134.509 15.75 135.884 17.0114 135.884 19.3295C135.884 21.6364 134.509 22.7955 131.69 22.7955H128.349ZM151.943 35.3409C157.239 35.3409 160.534 31.7159 160.534 26.3409C160.534 20.9318 157.239 17.3182 151.943 17.3182C146.648 17.3182 143.352 20.9318 143.352 26.3409C143.352 31.7159 146.648 35.3409 151.943 35.3409ZM151.966 31.5909C149.523 31.5909 148.273 29.3523 148.273 26.3068C148.273 23.2614 149.523 21.0114 151.966 21.0114C154.364 21.0114 155.614 23.2614 155.614 26.3068C155.614 29.3523 154.364 31.5909 151.966 31.5909ZM168.659 35.3295C171.239 35.3295 172.909 34.2045 173.761 32.5795H173.898V35H178.489V23.2273C178.489 19.0682 174.966 17.3182 171.08 17.3182C166.898 17.3182 164.148 19.3182 163.477 22.5L167.955 22.8636C168.284 21.7045 169.318 20.8523 171.057 20.8523C172.705 20.8523 173.648 21.6818 173.648 23.1136V23.1818C173.648 24.3068 172.455 24.4545 169.42 24.75C165.966 25.0682 162.864 26.2273 162.864 30.125C162.864 33.5795 165.33 35.3295 168.659 35.3295ZM170.045 31.9886C168.557 31.9886 167.489 31.2955 167.489 29.9659C167.489 28.6023 168.614 27.9318 170.318 27.6932C171.375 27.5455 173.102 27.2955 173.682 26.9091V28.7614C173.682 30.5909 172.17 31.9886 170.045 31.9886ZM188.676 35.2841C191.494 35.2841 192.96 33.6591 193.631 32.2045H193.835V35H198.608V11.7273H193.778V20.4773H193.631C192.983 19.0568 191.585 17.3182 188.665 17.3182C184.835 17.3182 181.597 20.2955 181.597 26.2955C181.597 32.1364 184.699 35.2841 188.676 35.2841ZM190.21 31.4318C187.835 31.4318 186.54 29.3182 186.54 26.2727C186.54 23.25 187.812 21.1705 190.21 21.1705C192.562 21.1705 193.881 23.1591 193.881 26.2727C193.881 29.3864 192.54 31.4318 190.21 31.4318Z" fill="white"/>
<defs>
<filter id="filter0_d_119_9" x="0.875" y="1.875" width="48.25" height="48.25" filterUnits="userSpaceOnUse" color-interpolation-filters="sRGB">
<feFlood flood-opacity="0" result="BackgroundImageFix"/>
<feColorMatrix in="SourceAlpha" type="matrix" values="0 0 0 0 0 0 0 0 0 0 0 0 0 0 0 0 0 0 127 0" result="hardAlpha"/>
<feOffset dy="3"/>
<feGaussianBlur stdDeviation="2"/>
<feColorMatrix type="matrix" values="0 0 0 0 0 0 0 0 0 0 0 0 0 0 0 0 0 0 0.1 0"/>
<feBlend mode="normal" in2="BackgroundImageFix" result="effect1_dropShadow_119_9"/>
<feBlend mode="normal" in="SourceGraphic" in2="effect1_dropShadow_119_9" result="shape"/>
</filter>
<radialGradient id="paint0_radial_119_9" cx="0" cy="0" r="1" gradientUnits="userSpaceOnUse" gradientTransform="translate(24.9453 23) rotate(90) scale(14.375 8.74998)">
<stop stop-color="#00A3FF"/>
<stop offset="1" stop-color="#00C2FF"/>
</radialGradient>
</defs>
</svg>
